<svg width="270" height="100" xmlns="http://www.w3.org/2000/svg">
 <!-- Created with Method Draw - http://github.com/duopixel/Method-Draw/ -->

 <g>
  <title>background</title>
  <rect fill="none" id="canvas_background" height="102" width="272" y="-1" x="-1"/>
  <g display="none" overflow="visible" y="0" x="0" height="100%" width="100%" id="canvasGrid">
   <rect fill="url(#gridpattern)" stroke-width="0" y="0" x="0" height="100%" width="100%"/>
  </g>
 </g>
 <g>
  <title>Layer 1</title>
  <ellipse stroke="#000000" ry="40" rx="40.999999" id="svg_3" cy="48.333336" cx="220.16667" stroke-width="8.5" fill="none"/>
  <rect stroke="#7f007f" id="svg_6" height="7" width="16.894744" y="46.333336" x="177.771924" stroke-width="0" fill="#000000"/>
  <rect stroke="#7f007f" id="svg_7" height="7" width="17.245621" y="46.333336" x="246.421048" stroke-width="0" fill="#000000"/>
  <rect transform="rotate(-90.43331909179688 220.16667175292963,80.8333358764648) " id="svg_9" height="7" width="17" y="77.333336" x="211.666667" stroke-width="0" stroke="#007fff" fill="#000000"/>
  <rect transform="rotate(-90.43331909179688 220.1666717529297,13.833335876464831) " id="svg_10" height="7" width="17" y="10.333336" x="211.666667" stroke-width="0" stroke="#000000" fill="#000000"/>
  <path stroke="#007fff" id="svg_19" d="m14.578932,26.431232l-8.333333,52.024922l48.958333,-13.707165l1.041667,-21.806853l-47.916667,-31.152648l33.333333,32.398754l1.041667,13.084112c0,0.311527 -26.041667,10.280374 -26.041667,10.280374c0,0 -2.083333,-41.121495 -2.083333,-41.121495z" stroke-width="0" fill="#0f0f0f"/>
  <path id="svg_27" d="m61.842343,68.420994l2.718854,-32.982511l30.175342,-5.614017l-1.052628,38.947244l-29.122714,0.350876c0.088155,0.000161 1.842535,-7.017361 1.842535,-7.017361c0,0 22.456069,-0.701752 22.367914,-0.701913c0.088155,0.000161 0.439031,-23.157661 0.350876,-23.157821c0.088155,0.00016 -20.613533,2.807168 -20.613533,2.807168c0,0 -1.403504,18.947308 -1.403504,18.947308" stroke-opacity="null" stroke-width="0" stroke="#007fff" fill="#000000"/>
  <path stroke="#007fff" id="svg_28" d="m126.754423,68.420994l-2.414411,-32.982511l-26.796461,-5.614017l0.93476,38.947244l25.861701,0.350876c-0.078284,0.000161 -1.636217,-7.017361 -1.636217,-7.017361c0,0 -19.941553,-0.701752 -19.863269,-0.701913c-0.078284,0.000161 -0.389871,-23.15766 -0.311587,-23.15782c-0.078284,0.00016 18.305336,2.807168 18.305336,2.807168c0,0 1.246347,18.947309 1.246347,18.947309" stroke-opacity="null" stroke-width="0" fill="#000000"/>
  <path id="svg_30" d="m132.71931,68.420994l-1.842536,-38.596528c0.088156,0.000159 18.333712,18.245716 19.035464,17.894839c0.701752,-0.350876 19.999937,-23.508697 19.911779,-23.508856c0.088158,0.000159 -6.227612,52.280695 -6.578488,53.333323c-0.350876,1.052628 1.403505,-36.140236 1.052629,-36.140236c-0.350876,0 -15.087672,16.1403 -15.175829,16.140139c0.088157,0.000161 -13.59601,-18.596272 -13.59601,-18.596272c0,0 -2.807009,6.31577 -2.807009,29.473591z" stroke-opacity="null" stroke-width="0" stroke="#007fff" fill="#000000"/>
  <path stroke="#007fff" id="svg_32" d="m193.069997,24.283947c0,0 10.743018,48.054292 10.743018,48.054292c0,0 11.126697,-25.964819 11.510376,-25.964819c0.383679,0 19.56764,29.065096 19.56764,29.065096c0,0 15.730848,-51.929638 15.634445,-51.929814c0.096402,0.000176 -17.552842,32.553084 -17.552842,32.553084c0,0 -14.196131,-27.514958 -14.196131,-27.514958c0,0 -13.045093,27.127423 -13.045093,27.127423c0,0 -12.661414,-31.390304 -12.661414,-31.390304z" stroke-opacity="null" stroke-width="0" fill="#000000"/>
  <path stroke="#007fff" id="svg_33" d="m15.982436,25.378604l-8.333333,52.024921l48.958333,-13.707165l1.041667,-21.806853l-47.916667,-31.152648l33.333333,32.398754l1.041667,13.084112c0,0.311527 -26.041667,10.280374 -26.041667,10.280374c0,0 -2.083333,-41.121495 -2.083333,-41.121495z" fill-opacity="null" stroke-opacity="null" stroke-width="0" fill="#e5e5e5"/>
  <path id="svg_34" d="m60.789715,67.368366l2.718854,-32.982511l30.175342,-5.614017l-1.052628,38.947244l-29.122714,0.350876c0.088155,0.00016 1.842535,-7.017361 1.842535,-7.017361c0,0 22.456069,-0.701752 22.367914,-0.701913c0.088155,0.000161 0.439031,-23.157661 0.350876,-23.15782c0.088155,0.000159 -20.613534,2.807168 -20.613534,2.807168c0,0 -1.403504,18.947308 -1.403504,18.947308" stroke-opacity="null" stroke-width="0" stroke="#007fff" fill="#e5e5e5"/>
  <path stroke="#007fff" id="svg_35" d="m128.508803,67.368366l-2.414411,-32.982511l-26.796461,-5.614017l0.93476,38.947244l25.861701,0.350876c-0.078284,0.000161 -1.636217,-7.017361 -1.636217,-7.017361c0,0 -19.941553,-0.701752 -19.863269,-0.701913c-0.078284,0.000161 -0.389871,-23.15766 -0.311587,-23.15782c-0.078284,0.00016 18.305336,2.807168 18.305336,2.807168c0,0 1.246346,18.947309 1.246346,18.947309" stroke-opacity="null" stroke-width="0" fill="#e5e5e5"/>
  <path id="svg_36" d="m133.421062,67.719242l-1.842536,-38.596528c0.088156,0.000159 18.333712,18.245716 19.035464,17.894839c0.701752,-0.350876 19.999937,-23.508697 19.911779,-23.508856c0.088158,0.000159 -6.227612,52.280695 -6.578488,53.333323c-0.350876,1.052628 1.403505,-36.140236 1.052629,-36.140236c-0.350876,0 -15.087672,16.1403 -15.175829,16.140139c0.088157,0.000161 -13.59601,-18.596272 -13.59601,-18.596272c0,0 -2.807009,6.31577 -2.807009,29.473591z" fill-opacity="null" stroke-opacity="null" stroke-width="0" stroke="#007fff" fill="#e5e5e5"/>
  <path stroke="#007fff" id="svg_37" d="m194.824375,26.33682c0,0 9.955743,44.807394 9.955743,44.807394c0,0 10.311306,-24.210447 10.666868,-24.210447c0.355562,0 18.133676,27.101247 18.133676,27.101247c0,0 14.578052,-48.420893 14.488714,-48.421058c0.089338,0.000165 -16.266526,30.35356 -16.266526,30.35356c0,0 -13.155803,-25.655847 -13.155803,-25.655847c0,0 -12.089117,25.294497 -12.089117,25.294497c0,0 -11.733555,-29.269346 -11.733555,-29.269346z" fill-opacity="null" stroke-opacity="null" stroke-width="0" fill="#e5e5e5"/>
  <ellipse stroke="#e5e5e5" ry="40" rx="40.999999" id="svg_38" cy="47.631583" cx="219.815802" stroke-width="8.5" fill="none"/>
  <rect transform="rotate(-90.43331909179688 221.21929931640622,15.236840248107884) " id="svg_39" height="7" width="17" y="11.73684" x="212.719295" stroke-width="0" stroke="#007fff" fill="#e5e5e5"/>
  <rect stroke="#7f007f" id="svg_40" height="7" width="17.245621" y="46.684212" x="247.1228" stroke-width="0" fill="#e5e5e5"/>
  <rect stroke="#7f007f" id="svg_41" height="7" width="16.894744" y="47.385964" x="179.175428" stroke-width="0" fill="#e5e5e5"/>
  <rect transform="rotate(-90.43331909179688 221.57017517089847,80.48246002197267) " id="svg_42" height="7" width="17" y="76.98246" x="213.070172" stroke-width="0" stroke="#007fff" fill="#e5e5e5"/>
 </g>
</svg>