<svg width="142" height="65" xmlns="http://www.w3.org/2000/svg" style="vector-effect: non-scaling-stroke;" stroke="null" preserveAspectRatio="xMidYMid meet">

 <metadata stroke="null">Created by potrace 1.15, written by Peter Selinger 2001-2017</metadata>
 <g stroke="null">
  <title stroke="null">background</title>
  <rect stroke="null" fill="none" id="canvas_background" height="67" width="144" y="-1" x="-1"/>
 </g>
 <g stroke="null">
  <title stroke="null">Layer 1</title>
  <rect stroke="null" fill="none" height="10" width="297.000001" y="212" x="-7" id="svgEditorBackground"/>
  <g stroke="null" transform="translate(0,243) scale(0.10000000149011612,-0.10000000149011612) " id="svg_1" fill="#000000">
   <path stroke="null" stroke-width="0" id="svg_2" fill="#000000" d="m484.844574,2415.357764c-33.452505,-15.013613 -47.242088,-22.652117 -68.947912,-37.66573c-37.282945,-25.812878 -58.988769,-54.786516 -62.819209,-84.286948l-1.532176,-12.379645l-13.278857,-1.58038c-50.051077,-6.848315 -112.35956,-29.237035 -139.172637,-50.045375c-12.002044,-9.218885 -8.171604,-8.692091 16.853934,2.633967c27.834527,12.116249 61.797758,21.071737 112.870285,28.973638c22.982637,3.424157 43.667011,7.638505 46.220637,8.955488c2.808989,1.58038 5.107253,6.848315 5.873341,14.486819c4.596527,34.504969 35.240044,66.902765 94.228813,99.827354l21.961187,12.379645l-1.276813,-20.80834c-1.787538,-26.076274 4.596527,-50.045375 19.40756,-72.960889c20.173648,-31.607605 39.581209,-48.991788 24.514813,-22.125324c-11.235956,20.281547 -19.152198,50.308772 -19.152198,72.960889c0.255363,18.964563 1.532176,24.232497 10.469868,47.411408c3.064352,7.638505 2.808989,8.955488 -2.042901,13.960026c-8.68233,8.955488 -24.514813,9.218885 -44.177736,0.263397z"/>
   <path stroke="null" stroke-width="0" id="svg_3" fill="#000000" d="m634.231716,2378.745621c-40.091934,-9.218885 -80.183868,-31.871002 -95.760989,-53.996326c-11.235956,-15.803803 -9.959143,-19.754753 3.319714,-10.535868c24.25945,16.85739 57.967318,33.187986 79.41778,38.45592l7.405516,1.843777l-8.426967,-9.745678c-15.577121,-18.43777 -22.216549,-43.197061 -15.066396,-56.89369c2.553626,-4.741141 3.319714,-4.214347 8.426967,7.375108c5.362615,11.852852 24.25945,32.661192 53.626154,59.527657c7.916242,7.375108 9.448418,10.272472 7.916242,15.013613c-1.021451,3.160761 -4.596527,6.848315 -8.171604,8.428695c-6.384066,2.37057 -23.238,2.633967 -32.686417,0.526793z"/>
   <path stroke="null" stroke-width="13" id="svg_4" fill="#000000" d="m564.426546,2279.181664c3.064352,-0.79019 16.598572,-3.687554 29.877429,-6.584918c64.606746,-14.486819 113.891735,-30.290622 124.616966,-40.299697c6.894792,-6.584918 7.150155,-12.379645 0.510726,-21.071737c-2.808989,-3.687555 -5.107253,-7.901901 -5.107253,-9.218885c0,-3.687554 33.452506,-16.857389 65.117472,-25.549481c14.044945,-3.950951 34.729319,-10.535869 45.965275,-14.486819c17.364659,-6.321521 25.791626,-7.638505 54.902966,-8.692092c35.75077,-1.580381 44.177736,-3.160761 42.64556,-8.165299c-1.276813,-4.214347 -18.641472,-13.960025 -33.707868,-18.964563c-14.044945,-4.74114 -29.366704,-15.277009 -29.366704,-20.281546c-0.255363,-11.062663 1.02145,-11.062663 -120.531164,-11.062663c-111.593472,0 -116.700725,-0.263396 -142.49235,-6.058124c-52.604703,-12.116249 -85.546483,-26.603068 -108.784484,-48.728392c-12.768132,-11.852851 -15.066396,-12.906438 -32.175692,-15.277009c-35.75077,-4.74114 -34.218594,-3.95095 -37.538307,-15.803802c-1.787539,-6.058125 -2.808989,-11.062662 -2.298264,-11.589456c0.510725,-0.526793 11.235956,0.526794 24.004087,2.370571l23.238001,3.16076l2.808989,-14.486819c5.362614,-27.920051 11.491319,-83.496757 9.70378,-90.608469c-6.384066,-27.129861 -44.688461,-31.080812 -56.17978,-5.794727c-2.298264,4.74114 -4.085802,11.852852 -4.085802,15.540406c0,8.428695 -1.532176,8.428695 -13.789582,0c-8.171605,-5.794727 -9.448418,-7.901901 -7.916242,-13.696628c5.362616,-22.915514 23.238001,-38.982714 46.220637,-41.61668l12.51277,-1.580381l24.770175,26.076275l24.514813,25.812878l-7.660879,60.317847l-7.916241,60.581243l8.68233,7.638505c10.980593,9.745678 37.282945,23.17891 58.478043,30.290622c47.752813,16.0672 99.846791,20.544944 187.691538,16.330596c76.608791,-3.950951 126.91523,-2.897364 137.895823,2.633967c4.85189,2.633968 8.68233,7.375108 10.469868,13.169836c2.553626,8.165299 4.85189,10.009075 20.939736,16.0672c38.815121,14.750215 53.626153,31.871002 41.62411,47.411408c-7.405516,9.745678 -22.471912,13.433232 -65.372835,15.803803c-36.261494,1.843776 -40.858022,2.897363 -89.376923,17.384183l-51.072527,15.540406l1.02145,11.062662c1.02145,15.540406 -4.596527,23.17891 -23.493362,32.134398c-17.875385,8.165299 -68.181824,20.544944 -117.977538,28.973639c-18.130748,2.897363 -36.261495,6.058124 -40.091935,6.848314l-3.217189,-0.329246z"/>
   <path stroke="null" stroke-width="0" id="svg_5" fill="#000000" d="m607.713183,2247.177863c-3.575077,-0.79019 -10.469868,-2.633967 -15.321758,-4.477744c-8.937692,-2.897364 -8.937692,-2.897364 10.214505,-5.531331c18.896835,-2.897364 19.152198,-2.897364 19.918286,-11.062662c0.510725,-4.741141 3.575077,-11.062662 7.150154,-14.486819c5.873341,-5.531331 8.937692,-6.321521 28.600615,-6.321521c48.008176,0 59.754857,22.652117 18.641472,35.821953c-16.343209,5.004538 -56.17978,8.692091 -69.203274,6.058124z"/>
   <path stroke="null" stroke-width="0" id="svg_6" fill="#000000" d="m219.267432,2220.1808c-53.881516,-20.80834 -103.166505,-54.259723 -132.022483,-89.818279c-44.943824,-55.576706 -52.860066,-128.274199 -20.939736,-195.44036c6.384066,-13.960026 11.235956,-16.85739 8.171604,-5.267934c-1.021451,3.950951 -1.787538,23.705704 -1.787538,43.987251c0,67.692955 12.768132,107.729255 50.051077,155.667457c23.238,29.763828 48.008176,50.045375 115.934637,95.086213c7.916242,5.004538 1.021451,3.687554 -19.40756,-4.214347z"/>
   <path stroke="null" stroke-width="0" id="svg_7" fill="#050505" d="m108.546321,2077.259511c-12.768132,-24.759291 -19.662923,-86.657518 -13.53422,-119.582107c18.130747,-95.086213 122.06334,-147.765555 316.138944,-160.408597c29.877428,-2.107174 55.413692,-2.107174 86.567934,0c72.778351,4.477744 108.273758,12.116249 233.40145,48.728392c89.887648,26.339671 138.406549,37.402333 196.62923,44.777441c70.480088,9.218885 233.912175,7.901901 343.207383,-2.897364c37.79367,-3.687554 52.604703,-3.687554 35.495406,0c-12.512769,2.633967 -84.525033,11.589455 -131.001032,16.330596c-56.945868,6.058124 -231.103186,6.848315 -266.853955,1.58038c-66.138923,-9.745678 -114.913186,-20.80834 -212.206351,-47.938202c-126.404505,-35.295159 -157.814109,-40.563094 -248.723208,-40.563094c-70.224725,-0.263397 -89.887648,1.58038 -153.217582,14.486819c-72.778351,14.750216 -110.572022,32.134399 -144.535252,66.902765c-31.92033,32.397796 -41.368747,57.157086 -43.667011,113.260586c-1.021451,25.812878 -0.255363,38.45592 2.553626,51.362359c4.085802,17.64758 4.085802,22.38872 -0.255363,13.960026z"/>
   <path stroke="null" stroke-width="0" id="svg_8" fill="#000000" d="m749.144902,2064.513344c-34.729319,-5.004538 -42.134835,-8.165298 -42.134835,-16.593993c0,-5.531331 6.384066,-57.68388 8.937692,-73.487683c0.766088,-5.267934 -0.255363,-7.375108 -3.83044,-8.692091c-2.553626,-0.79019 -5.873341,-5.004538 -7.405516,-9.218885c-2.553626,-7.638505 -2.298264,-7.901901 5.873341,-7.901901l8.68233,0l3.064352,-26.866465c1.787538,-15.013613 4.085802,-28.183448 5.362615,-29.500432c1.021451,-1.316984 6.128703,0.526793 11.235956,3.687554c10.469868,6.584918 10.214505,4.477744 4.85189,45.040838l-1.532176,11.852852l20.684374,2.897364c11.491319,1.58038 21.450461,3.160761 21.961187,3.687554c0.510725,0.526793 1.532176,4.214347 2.553626,8.428695c1.787538,6.584918 1.276813,7.111711 -5.362615,7.111711c-4.085802,0 -14.811033,-1.316984 -24.004088,-2.633967c-8.937692,-1.316984 -16.853934,-2.107174 -17.109297,-1.58038c-0.510725,0.263397 -2.553626,13.696629 -4.596527,29.500432c-2.042901,15.803803 -4.341165,32.397796 -5.107253,36.87554l-1.276813,8.165298l24.770176,3.160761c13.789582,1.843777 25.791626,4.741141 26.813077,6.584918c2.553626,3.950951 2.553626,14.750216 0.255363,14.486819c-1.276813,-0.263397 -15.832483,-2.37057 -32.686417,-5.004538z"/>
   <path stroke="null" stroke-width="0" id="svg_9" fill="#000000" d="m986.887517,2034.222722c-5.362615,-12.379645 -10.725231,-22.38872 -11.746681,-22.38872c-1.021451,0 -8.426967,8.955488 -16.598571,19.754753l-14.55567,19.754753l-9.959143,-6.058124c-5.362615,-3.160761 -9.959143,-6.584918 -9.959143,-7.375108c0,-1.053587 8.937692,-13.433232 19.918286,-27.920051l20.173648,-26.076274l-12.512769,-27.129861c-6.639429,-15.013613 -12.257407,-28.710242 -12.257407,-30.554019c0,-5.267934 10.980593,-7.111711 14.55567,-2.37057c1.532176,2.107174 6.639429,12.906439 11.491319,23.705704c4.596527,10.799265 9.193055,19.491357 9.959143,19.491357c1.021451,0 8.426967,-8.955488 16.343209,-19.754753c8.171604,-10.799265 15.321758,-19.754753 16.087846,-19.754753c2.298264,0 18.38611,11.062662 18.38611,12.643042c0,0.79019 -8.68233,13.169836 -19.40756,27.393258c-21.705824,29.237035 -21.450461,24.759291 -4.85189,60.84464c11.491319,24.759291 11.491319,28.183448 0,28.183448c-3.83044,0 -7.405516,-5.267934 -15.066396,-22.38872z"/>
   <path stroke="null" stroke-width="0" id="svg_10" fill="#000000" d="m839.287913,2017.892126l-19.662923,-20.544944l3.83044,-28.973638c6.128703,-44.250648 11.235956,-52.415946 36.516857,-57.157086l15.832483,-3.160761l20.429011,21.071737l20.429011,21.071737l-4.085802,30.027225c-2.298264,16.593993 -5.873341,33.978176 -7.916242,38.45592c-5.107253,10.799265 -20.429011,19.491357 -34.729319,19.491357c-10.469868,0 -12.257407,-1.053587 -30.643516,-20.281547zm40.858022,-4.214347c4.596527,-5.004538 7.660879,-19.491357 9.70378,-47.411408c1.787538,-21.861927 1.532176,-23.442307 -4.085802,-29.500432c-7.150154,-7.901901 -19.918286,-8.692091 -27.834527,-1.843777c-6.639429,5.267934 -9.70378,17.64758 -12.002044,48.464995c-1.787538,22.125324 -1.532176,22.915514 5.107253,29.763828c5.873341,6.058124 8.426967,6.848315 16.343209,5.794728c4.85189,-1.053587 10.725231,-3.424157 12.768132,-5.267934z"/>
   <path stroke="null" stroke-width="0" id="svg_11" fill="#000000" d="m136.019212,2026.057424c-2.553626,-10.535868 0.766088,-35.558556 6.894791,-52.679342c18.896835,-52.679342 68.437187,-90.871866 132.533208,-102.461321c10.469868,-2.107174 19.40756,-3.160761 19.918286,-2.897364c0.255363,0.526793 -9.448418,5.794728 -21.705824,11.852852c-50.561802,25.022688 -82.737494,59.527657 -120.531164,128.800992c-7.405516,13.169836 -13.789582,24.232497 -14.300308,24.232497c-0.766088,0 -2.042901,-3.160761 -2.808989,-6.848315z"/>
   <path stroke="null" stroke-width="0" id="svg_12" fill="#020202" d="m611.504441,1988.655091l-19.918286,-21.071737l4.085802,-30.554019c2.298264,-16.85739 5.873341,-34.241573 7.916242,-38.719317c5.873341,-11.326059 18.130747,-18.174373 33.197143,-18.174373c12.257407,0 13.023494,0.526793 31.92033,19.754753l19.40756,20.01815l-3.319714,28.183448c-5.617978,44.250648 -13.789582,56.366896 -40.602659,59.791054l-12.512769,1.58038l-20.173648,-20.80834zm35.495406,-2.107174c6.894791,-2.897364 10.980593,-14.750216 14.300308,-42.933664c2.808989,-23.178911 2.808989,-27.920051 -0.255363,-33.978176c-7.405516,-13.169836 -26.813077,-14.223422 -34.729319,-1.843777c-4.341165,6.848315 -11.235956,54.259723 -9.193055,63.215211c3.064352,13.433232 16.853934,20.544944 29.877428,15.540406z"/>
   <path stroke="null" stroke-width="0" id="svg_13" fill="#050404" d="m542.301167,1991.815851c-2.808989,-2.107174 -6.384066,-4.741141 -7.916242,-5.794728c-2.298264,-1.316984 -1.021451,-17.120786 4.341165,-58.47407c4.085802,-31.080812 7.405516,-58.210673 7.405516,-60.05445c0,-2.633967 1.532176,-2.37057 7.150154,0.526793c16.853934,9.218885 16.343209,4.741141 8.171604,67.429558c-4.085802,31.080812 -7.405516,57.420483 -7.660879,58.737467c0,3.160761 -6.128703,1.843777 -11.491319,-2.37057z"/>
   <path stroke="null" stroke-width="12" id="svg_14" fill="#ffffff" d="m578.148442,2291.183965c3.064352,-0.790191 -3.045497,-9.350814 10.233361,-12.248178c64.606746,-14.486819 113.891735,-30.290622 124.616966,-40.299697c6.894791,-6.584918 7.150154,-12.379645 0.510725,-21.071737c-2.808989,-3.687554 -5.107252,-7.901901 -5.107252,-9.218885c0,-3.687554 33.452506,-16.857389 65.117472,-25.549481c14.044945,-3.950951 34.729319,-10.535869 45.965275,-14.486819c17.364659,-6.321521 25.791626,-7.638505 54.902966,-8.692091c35.75077,-1.580381 44.177737,-3.160761 42.645561,-8.165299c-1.276814,-4.214347 -18.641473,-13.960025 -33.707868,-18.964563c-14.044945,-4.74114 -29.366704,-15.277009 -29.366704,-20.281546c-0.255363,-11.062663 1.02145,-11.062663 -120.531164,-11.062663c-111.593472,0 -116.700725,-0.263396 -142.492351,-6.058124c-52.604703,-12.116249 -85.546483,-26.603067 -108.784483,-48.728392c-12.768132,-11.852851 -15.066396,-12.906438 -32.175692,-15.277009c-35.75077,-4.741141 -34.218594,-3.95095 -37.538307,-15.803803c-1.787539,-6.058124 -2.80899,-11.062661 -2.298264,-11.589455c0.510725,-0.526793 11.235956,0.526794 24.004087,2.370571l23.238,3.16076l2.80899,-14.486819c5.362614,-27.920051 11.491318,-83.496758 9.703779,-90.608469c-6.384066,-27.129861 -44.68846,-31.080812 -56.179779,-5.794728c-2.298264,4.741141 -4.085803,11.852852 -4.085803,15.540406c0,8.428695 -1.532176,8.428695 -13.789582,0c-8.171605,-5.794727 -9.448418,-7.901901 -7.916242,-13.696628c5.362615,-22.915514 23.238,-38.982714 46.220637,-41.616681l12.51277,-1.580381l24.770175,26.076275l24.514813,25.812878l-7.660879,60.317847l-7.916241,60.581243l8.682329,7.638505c10.980593,9.745678 37.282945,23.17891 58.478044,30.290622c47.752813,16.0672 99.846791,20.544944 187.691538,16.330596c76.608791,-3.950951 126.91523,-2.897364 137.895823,2.633967c4.85189,2.633968 8.68233,7.375108 10.469869,13.169836c2.553626,8.165298 4.85189,10.009075 20.939735,16.067199c38.815121,14.750216 53.626154,31.871002 41.62411,47.411408c-7.405516,9.745679 -22.471912,13.433232 -65.372835,15.803803c-36.261494,1.843777 -40.858022,2.897364 -89.376923,17.384183l-51.072526,15.540406l1.02145,11.062662c1.02145,15.540406 -4.596527,23.178911 -23.493362,32.134399c-17.875385,8.165298 -68.181824,20.544943 -117.977538,28.973638c-18.130748,2.897364 -36.261496,6.058124 -40.091935,6.848315l-3.217189,-0.052036z"/>
   <path stroke="null" stroke-width="0" id="svg_15" fill="#ffffff" d="m535.578701,1997.345652c-2.808988,-2.107174 -6.384066,-4.74114 -7.916241,-5.794727c-2.298265,-1.316983 -1.021452,-17.120787 4.341164,-58.47407c4.085802,-31.080813 7.405516,-58.210674 7.405516,-60.05445c0,-2.633968 1.532176,-2.37057 7.150155,0.526793c16.853933,9.218885 16.343209,4.741141 8.171604,67.429559c-4.085802,31.080812 -7.405516,57.420483 -7.660879,58.737466c0,3.160761 -6.128703,1.843777 -11.491319,-2.37057z"/>
   <path stroke="null" stroke-width="0" id="svg_16" fill="#ffffff" d="m602.541153,1994.589512l-19.918285,-21.071737l4.085802,-30.554019c2.298264,-16.857389 5.87334,-34.241572 7.916242,-38.719316c5.87334,-11.326058 18.130747,-18.174374 33.197142,-18.174374c12.257406,0 13.023495,0.526794 31.92033,19.754753l19.40756,20.018151l-3.319714,28.183447c-5.617979,44.250648 -13.789582,56.366897 -40.60266,59.791054l-12.512769,1.58038l-20.173648,-20.80834zm35.495407,-2.107174c6.894792,-2.897363 10.980593,-14.750215 14.300308,-42.933664c2.808988,-23.17891 2.808988,-27.920051 -0.255363,-33.978176c-7.405516,-13.169836 -26.813077,-14.223422 -34.729319,-1.843776c-4.341164,6.848314 -11.235956,54.259722 -9.193054,63.21521c3.064351,13.433233 16.853933,20.544944 29.877428,15.540406z"/>
   <path stroke="null" stroke-width="0" id="svg_17" fill="#fcfcfc" d="m740.181614,2067.615427c-34.729319,-5.004538 -42.134836,-8.165299 -42.134836,-16.593993c0,-5.531331 6.384066,-57.68388 8.937692,-73.487683c0.766089,-5.267933 -0.255363,-7.375107 -3.83044,-8.692092c-2.553626,-0.790189 -5.87334,-5.004537 -7.405516,-9.218884c-2.553626,-7.638505 -2.298264,-7.901901 5.87334,-7.901901l8.68233,0l3.064352,-26.866465c1.787539,-15.013612 4.085802,-28.183447 5.362616,-29.500432c1.02145,-1.316983 6.128703,0.526794 11.235956,3.687555c10.469867,6.584918 10.214506,4.477744 4.85189,45.040838l-1.532176,11.852852l20.684374,2.897363c11.491319,1.580381 21.450462,3.160761 21.961186,3.687555c0.510726,0.526793 1.532176,4.214348 2.553626,8.428694c1.787539,6.584918 1.276813,7.111712 -5.362616,7.111712c-4.085801,0 -14.811033,-1.316983 -24.004087,-2.633968c-8.937692,-1.316983 -16.853934,-2.107173 -17.109297,-1.58038c-0.510725,0.263396 -2.553626,13.696629 -4.596527,29.500432c-2.042902,15.803802 -4.341165,32.397796 -5.107253,36.87554l-1.276813,8.165298l24.770175,3.160761c13.789582,1.843777 25.791627,4.74114 26.813077,6.584918c2.553626,3.950951 2.553626,14.750216 0.255363,14.486819c-1.276813,-0.263396 -15.832484,-2.37057 -32.686417,-5.004537z"/>
   <path stroke="null" stroke-width="0" id="svg_18" fill="#ffffff" d="m830.324625,2022.882434l-19.662923,-20.544944l3.83044,-28.973638c6.128703,-44.250648 11.235956,-52.415946 36.516856,-57.157086l15.832484,-3.160761l20.429011,21.071737l20.42901,21.071737l-4.085801,30.027226c-2.298265,16.593993 -5.873341,33.978176 -7.916242,38.45592c-5.107253,10.799265 -20.429011,19.491357 -34.729318,19.491357c-10.469868,0 -12.257407,-1.053587 -30.643517,-20.281547zm40.858021,-4.214348c4.596528,-5.004537 7.660879,-19.491357 9.703781,-47.411408c1.787538,-21.861927 1.532175,-23.442307 -4.085802,-29.500432c-7.150153,-7.901901 -19.918285,-8.692092 -27.834528,-1.843777c-6.639429,5.267934 -9.70378,17.64758 -12.002043,48.464996c-1.787539,22.125324 -1.532176,22.915514 5.107253,29.763828c5.87334,6.058124 8.426967,6.848314 16.343209,5.794727c4.85189,-1.053587 10.72523,-3.424157 12.768131,-5.267934z"/>
   <path stroke="null" stroke-width="0" id="svg_19" fill="#ffffff" d="m980.16505,2041.505875c-5.362614,-12.379645 -10.72523,-22.38872 -11.746681,-22.38872c-1.02145,0 -8.426968,8.955488 -16.598572,19.754753l-14.55567,19.754753l-9.959143,-6.058125c-5.362616,-3.160761 -9.959144,-6.584918 -9.959144,-7.375108c0,-1.053587 8.937692,-13.433232 19.918287,-27.920051l20.173648,-26.076275l-12.51277,-27.129862c-6.639428,-15.013612 -12.257406,-28.710241 -12.257406,-30.554019c0,-5.267933 10.980593,-7.111711 14.555671,-2.37057c1.532175,2.107174 6.639428,12.906439 11.491318,23.705704c4.596528,10.799265 9.193055,19.491357 9.959144,19.491357c1.02145,0 8.426967,-8.955489 16.343209,-19.754753c8.171604,-10.799265 15.321757,-19.754753 16.087846,-19.754753c2.298264,0 18.386109,11.062662 18.386109,12.643042c0,0.79019 -8.68233,13.169836 -19.40756,27.393258c-21.705824,29.237035 -21.450462,24.759291 -4.851891,60.844641c11.491319,24.75929 11.491319,28.183448 0,28.183448c-3.83044,0 -7.405516,-5.267934 -15.066396,-22.388721z"/>
   <path stroke="null" stroke-width="0" id="svg_21" fill="#ffffff" d="m498.129446,2414.143904c-33.452505,-15.013612 -47.242087,-22.652117 -68.947912,-37.665729c-37.282945,-25.812878 -58.988769,-54.786516 -62.819209,-84.286948l-1.532176,-12.379645l-13.278857,-1.580381c-50.051077,-6.848314 -112.359561,-29.237035 -139.172637,-50.045375c-12.002045,-9.218884 -8.171605,-8.692092 16.853933,2.633968c27.834528,12.116249 61.797758,21.071737 112.870285,28.973638c22.982638,3.424157 43.667012,7.638505 46.220638,8.955488c2.808988,1.580381 5.107252,6.848315 5.87334,14.48682c4.596527,34.504969 35.240044,66.902765 94.228813,99.827354l21.961186,12.379645l-1.276813,-20.80834c-1.787538,-26.076275 4.596528,-50.045374 19.407561,-72.960888c20.173648,-31.607606 39.581208,-48.991789 24.514813,-22.125325c-11.235956,20.281547 -19.152197,50.308772 -19.152197,72.960889c0.255362,18.964563 1.532175,24.232497 10.469867,47.411408c3.064352,7.638505 2.808989,8.955489 -2.042901,13.960026c-8.68233,8.955488 -24.514814,9.218885 -44.177736,0.263396z"/>
   <path stroke="null" stroke-width="0" id="svg_22" fill="#ffffff" d="m640.474005,2390.749336c-40.091934,-9.218885 -80.183868,-31.871002 -95.760989,-53.996326c-11.235956,-15.803803 -9.959143,-19.754754 3.319715,-10.535869c24.25945,16.857389 57.967319,33.187985 79.41778,38.45592l7.405516,1.843777l-8.426968,-9.745678c-15.57712,-18.43777 -22.216549,-43.197061 -15.066396,-56.89369c2.553626,-4.74114 3.319715,-4.214348 8.426968,7.375108c5.362614,11.852851 24.25945,32.661191 53.626153,59.527656c7.916242,7.375108 9.448417,10.272471 7.916242,15.013613c-1.021452,3.160761 -4.596528,6.848314 -8.171605,8.428694c-6.384066,2.370571 -23.237999,2.633968 -32.686417,0.526794z"/>
   <path stroke="null" stroke-width="0" id="svg_23" fill="#fcfcfc" d="m229.351131,2220.855166c-53.881517,-20.80834 -103.166505,-54.259723 -132.022483,-89.818279c-44.943825,-55.576706 -52.860066,-128.274198 -20.939737,-195.440361c6.384066,-13.960025 11.235956,-16.857389 8.171605,-5.267934c-1.02145,3.950951 -1.787539,23.705704 -1.787539,43.987252c0,67.692955 12.768132,107.729255 50.051077,155.667456c23.238001,29.763828 48.008176,50.045375 115.934637,95.086213c7.916242,5.004537 1.02145,3.687554 -19.40756,-4.214348z"/>
   <path stroke="null" stroke-width="0" id="svg_24" fill="#ffffff" d="m117.690467,2077.800051c-12.768131,-24.759291 -19.662922,-86.657519 -13.534219,-119.582108c18.130746,-95.086213 122.063339,-147.765555 316.138943,-160.408597c29.877428,-2.107174 55.413691,-2.107174 86.567933,0c72.778351,4.477744 108.273759,12.116249 233.40145,48.728392c89.887648,26.339671 138.406548,37.402333 196.62923,44.777441c70.480088,9.218885 233.912175,7.901901 343.207383,-2.897364c37.793671,-3.687554 52.604704,-3.687554 35.495407,0c-12.51277,2.633967 -84.525033,11.589455 -131.001033,16.330596c-56.945868,6.058124 -231.103186,6.848314 -266.853955,1.58038c-66.138922,-9.745678 -114.913186,-20.80834 -212.20635,-47.938201c-126.404505,-35.29516 -157.81411,-40.563094 -248.723208,-40.563094c-70.224726,-0.263397 -89.887649,1.58038 -153.217582,14.486819c-72.778351,14.750216 -110.572022,32.134399 -144.535253,66.902765c-31.92033,32.397796 -41.368747,57.157086 -43.66701,113.260586c-1.02145,25.812878 -0.255362,38.45592 2.553627,51.362359c4.085802,17.647579 4.085802,22.38872 -0.255363,13.960026z"/>
   <path stroke="null" stroke-width="0" id="svg_25" fill="#ffffff" d="m145.805053,2022.679046c-2.553625,-10.535869 0.766088,-35.558556 6.894791,-52.679343c18.896835,-52.679342 68.437187,-90.871865 132.533208,-102.46132c10.469869,-2.107174 19.407561,-3.160761 19.918286,-2.897364c0.255362,0.526793 -9.448418,5.794727 -21.705824,11.852852c-50.561803,25.022687 -82.737494,59.527657 -120.531165,128.800992c-7.405515,13.169835 -13.789582,24.232497 -14.300308,24.232497c-0.766088,0 -2.042901,-3.16076 -2.808989,-6.848314z"/>
   <path stroke="null" stroke-width="0" id="svg_26" fill="#ffffff" d="m602.419203,2252.177863c-3.575077,-0.790191 -10.469868,-2.633968 -15.321758,-4.477745c-8.937692,-2.897363 -8.937692,-2.897363 10.214505,-5.531331c18.896835,-2.897363 19.152198,-2.897363 19.918285,-11.062661c0.510726,-4.741141 3.575077,-11.062662 7.150154,-14.48682c5.87334,-5.531331 8.937692,-6.321521 28.600615,-6.321521c48.008175,0 59.754857,22.652118 18.641472,35.821953c-16.343209,5.004538 -56.179779,8.692092 -69.203275,6.058125z"/>
  </g>
 </g>
</svg>