<svg width="112" height="70" xmlns="http://www.w3.org/2000/svg" preserveAspectRatio="xMidYMid meet">

 <metadata>Created by potrace 1.15, written by Peter Selinger 2001-2017</metadata>
 <g>
  <title>background</title>
  <rect fill="none" id="canvas_background" height="72" width="114" y="-1" x="-1"/>
 </g>
 <g>
  <title>Layer 1</title>
  <rect fill="none" height="10" width="297.000001" y="212" x="-7" id="svgEditorBackground"/>
  <g stroke="null" id="svg_1" fill="#000000" transform="translate(0,243) scale(0.10000000149011612,-0.10000000149011612) ">
   <path stroke="null" stroke-width="0" id="svg_2" fill="#000000" d="m415.814837,2415.357764c-28.179197,-15.013613 -39.79505,-22.652117 -58.079261,-37.66573c-31.405823,-25.812878 -49.690035,-54.786516 -52.91666,-84.286948l-1.29065,-12.379645l-11.185636,-1.58038c-42.161242,-6.848315 -94.647685,-29.237035 -117.234065,-50.045375c-10.110094,-9.218885 -6.883468,-8.692091 14.197153,2.633967c23.446813,12.116249 52.056227,21.071737 95.077902,28.973638c19.359754,3.424157 36.783532,7.638505 38.934616,8.955488c2.366192,1.58038 4.302168,6.848315 4.947493,14.486819c3.871951,34.504969 29.684956,66.902765 79.374991,99.827354l18.49932,12.379645l-1.075542,-20.80834c-1.505759,-26.076274 3.871951,-50.045375 16.348237,-72.960889c16.993562,-31.607605 33.341798,-48.991788 20.650404,-22.125324c-9.464769,20.281547 -16.133128,50.308772 -16.133128,72.960889c0.215108,18.964563 1.29065,24.232497 8.819443,47.411408c2.581301,7.638505 2.366192,8.955488 -1.720867,13.960026c-7.313685,8.955488 -20.650404,9.218885 -37.213749,0.263397z"/>
   <path stroke="null" stroke-width="0" id="svg_3" fill="#000000" d="m541.653237,2378.745621c-33.772015,-9.218885 -67.54403,-31.871002 -80.665641,-53.996326c-9.464769,-15.803803 -8.389227,-19.754753 2.796409,-10.535868c20.435296,16.85739 48.829601,33.187986 66.898705,38.45592l6.238143,1.843777l-7.098576,-9.745678c-13.121611,-18.43777 -18.714429,-43.197061 -12.691394,-56.89369c2.151084,-4.741141 2.796409,-4.214347 7.098576,7.375108c4.517276,11.852852 20.435296,32.661192 45.172759,59.527657c6.66836,7.375108 7.95901,10.272472 6.66836,15.013613c-0.860434,3.160761 -3.871951,6.848315 -6.883468,8.428695c-5.377709,2.37057 -19.574862,2.633967 -27.533872,0.526793z"/>
   <path stroke="null" stroke-width="13" id="svg_4" fill="#000000" d="m482.851851,2279.181664c2.581301,-0.79019 13.982045,-3.687554 25.167681,-6.584918c54.422419,-14.486819 95.938335,-30.290622 104.972887,-40.299697c5.807927,-6.584918 6.023035,-12.379645 0.430217,-21.071737c-2.366192,-3.687555 -4.302168,-7.901901 -4.302168,-9.218885c0,-3.687554 28.179198,-16.857389 54.852636,-25.549481c11.830961,-3.950951 29.25474,-10.535869 38.719508,-14.486819c14.627369,-6.321521 21.725945,-7.638505 46.248301,-8.692092c30.115173,-1.580381 37.213749,-3.160761 35.923099,-8.165299c-1.075542,-4.214347 -15.702911,-13.960025 -28.394305,-18.964563c-11.830961,-4.74114 -24.737464,-15.277009 -24.737464,-20.281546c-0.215109,-11.062663 0.860433,-11.062663 -101.531153,-11.062663c-94.00236,0 -98.304528,-0.263396 -120.030473,-6.058124c-44.312325,-12.116249 -72.061306,-26.603068 -91.636169,-48.728392c-10.755419,-11.852851 -12.691394,-12.906438 -27.103655,-15.277009c-30.115173,-4.74114 -28.824523,-3.95095 -31.620931,-15.803802c-1.505759,-6.058125 -2.366192,-11.062662 -1.935975,-11.589456c0.430216,-0.526793 9.464768,0.526794 20.220186,2.370571l19.574863,3.16076l2.366192,-14.486819c4.517275,-27.920051 9.679877,-83.496757 8.174118,-90.608469c-5.377709,-27.129861 -37.643965,-31.080812 -47.323842,-5.794727c-1.935975,4.74114 -3.441734,11.852852 -3.441734,15.540406c0,8.428695 -1.29065,8.428695 -11.615852,0c-6.883469,-5.794727 -7.95901,-7.901901 -6.66836,-13.696628c4.517276,-22.915514 19.574863,-38.982714 38.934616,-41.61668l10.540311,-1.580381l20.865512,26.076275l20.650404,25.812878l-6.453251,60.317847l-6.668359,60.581243l7.313685,7.638505c9.24966,9.745678 31.405823,23.17891 49.259818,30.290622c40.225266,16.0672 84.107375,20.544944 158.104657,16.330596c64.532513,-3.950951 106.908863,-2.897364 116.158523,2.633967c4.087059,2.633968 7.313685,7.375108 8.819444,13.169836c2.151084,8.165299 4.087059,10.009075 17.638886,16.0672c32.696473,14.750215 45.172759,31.871002 35.062665,47.411408c-6.238143,9.745678 -18.929537,13.433232 -55.067744,15.803803c-30.545389,1.843776 -34.417341,2.897363 -75.287932,17.384183l-43.021675,15.540406l0.860433,11.062662c0.860433,15.540406 -3.87195,23.17891 -19.78997,32.134398c-15.057587,8.165299 -57.433937,20.544944 -99.38007,28.973639c-15.272695,2.897363 -30.54539,6.058124 -33.772016,6.848314l-2.710045,-0.329246z"/>
   <path stroke="null" stroke-width="0" id="svg_5" fill="#000000" d="m519.31497,2247.177863c-3.011517,-0.79019 -8.819443,-2.633967 -12.906503,-4.477744c-7.528793,-2.897364 -7.528793,-2.897364 8.604335,-5.531331c15.91802,-2.897364 16.133128,-2.897364 16.778453,-11.062662c0.430217,-4.741141 3.011517,-11.062662 6.023035,-14.486819c4.947493,-5.531331 7.528793,-6.321521 24.092138,-6.321521c40.440375,0 50.33536,22.652117 15.702911,35.821953c-13.766936,5.004538 -47.323843,8.692091 -58.29437,6.058124z"/>
   <path stroke="null" stroke-width="0" id="svg_6" fill="#000000" d="m192.102126,2220.1808c-45.387867,-20.80834 -86.903784,-54.259723 -111.21103,-89.818279c-37.859074,-55.576706 -44.527434,-128.274199 -17.638887,-195.44036c5.377709,-13.960026 9.464769,-16.85739 6.883468,-5.267934c-0.860434,3.950951 -1.505759,23.705704 -1.505759,43.987251c0,67.692955 10.755419,107.729255 42.161242,155.667457c19.574862,29.763828 40.440375,50.045375 97.659203,95.086213c6.66836,5.004538 0.860434,3.687554 -16.348237,-4.214347z"/>
   <path stroke="null" stroke-width="0" id="svg_7" fill="#050505" d="m98.834611,2077.259511c-10.755419,-24.759291 -16.563345,-86.657518 -11.400744,-119.582107c15.272695,-95.086213 102.821804,-147.765555 266.304169,-160.408597c25.16768,-2.107174 46.678518,-2.107174 72.921739,0c61.305887,4.477744 91.205951,12.116249 196.609056,48.728392c75.718148,26.339671 116.58874,37.402333 165.633449,44.777441c59.369912,9.218885 197.039272,7.901901 289.105657,-2.897364c31.83604,-3.687554 44.312325,-3.687554 29.900064,0c-10.54031,2.633967 -71.200872,11.589455 -110.350597,16.330596c-47.969168,6.058124 -194.67308,6.848315 -224.788253,1.58038c-55.713069,-9.745678 -96.798769,-20.80834 -178.75506,-47.938202c-106.478646,-35.295159 -132.936976,-40.563094 -209.515558,-40.563094c-59.154803,-0.263397 -75.718148,1.58038 -129.065025,14.486819c-61.305887,14.750216 -93.141927,32.134399 -121.751341,66.902765c-26.888547,32.397796 -34.847557,57.157086 -36.783532,113.260586c-0.860434,25.812878 -0.215108,38.45592 2.151084,51.362359c3.441734,17.64758 3.441734,22.38872 -0.215108,13.960026z"/>
   <path stroke="null" stroke-width="0" id="svg_8" fill="#000000" d="m638.452006,2064.513344c-29.254739,-5.004538 -35.492882,-8.165298 -35.492882,-16.593993c0,-5.531331 5.377709,-57.68388 7.528793,-73.487683c0.645325,-5.267934 -0.215108,-7.375108 -3.226626,-8.692091c-2.151084,-0.79019 -4.947493,-5.004538 -6.238143,-9.218885c-2.151084,-7.638505 -1.935975,-7.901901 4.947493,-7.901901l7.313685,0l2.581301,-26.866465c1.505759,-15.013613 3.441734,-28.183448 4.517276,-29.500432c0.860434,-1.316984 5.162601,0.526793 9.464769,3.687554c8.819443,6.584918 8.604335,4.477744 4.087059,45.040838l-1.29065,11.852852l17.423778,2.897364c9.679877,1.58038 18.069104,3.160761 18.49932,3.687554c0.430217,0.526793 1.29065,4.214347 2.151084,8.428695c1.505759,6.584918 1.075542,7.111711 -4.517276,7.111711c-3.441734,0 -12.476286,-1.316984 -20.220187,-2.633967c-7.528793,-1.316984 -14.197153,-2.107174 -14.412261,-1.58038c-0.430217,0.263397 -2.151084,13.696629 -3.871951,29.500432c-1.720867,15.803803 -3.656842,32.397796 -4.302168,36.87554l-1.075542,8.165298l20.865512,3.160761c11.615852,1.843777 21.725946,4.741141 22.586379,6.584918c2.151084,3.950951 2.151084,14.750216 0.215108,14.486819c-1.075542,-0.263397 -13.336719,-2.37057 -27.533872,-5.004538z"/>
   <path stroke="null" stroke-width="0" id="svg_9" fill="#000000" d="m838.717904,2034.222722c-4.517276,-12.379645 -9.034552,-22.38872 -9.894985,-22.38872c-0.860434,0 -7.098576,8.955488 -13.982044,19.754753l-12.261177,19.754753l-8.389227,-6.058124c-4.517276,-3.160761 -8.389227,-6.584918 -8.389227,-7.375108c0,-1.053587 7.528793,-13.433232 16.778453,-27.920051l16.993562,-26.076274l-10.54031,-27.129861c-5.592818,-15.013613 -10.325202,-28.710242 -10.325202,-30.554019c0,-5.267934 9.24966,-7.111711 12.261177,-2.37057c1.29065,2.107174 5.592818,12.906439 9.679877,23.705704c3.871951,10.799265 7.743902,19.491357 8.389227,19.491357c0.860434,0 7.098576,-8.955488 13.766936,-19.754753c6.883468,-10.799265 12.906503,-19.754753 13.551828,-19.754753c1.935975,0 15.487803,11.062662 15.487803,12.643042c0,0.79019 -7.313685,13.169836 -16.348237,27.393258c-18.284212,29.237035 -18.069104,24.759291 -4.087059,60.84464c9.679877,24.759291 9.679877,28.183448 0,28.183448c-3.226626,0 -6.238143,-5.267934 -12.691394,-22.38872z"/>
   <path stroke="null" stroke-width="0" id="svg_10" fill="#000000" d="m714.385262,2017.892126l-16.563345,-20.544944l3.226626,-28.973638c5.162601,-44.250648 9.464769,-52.415946 30.760498,-57.157086l13.336719,-3.160761l17.20867,21.071737l17.20867,21.071737l-3.441734,30.027225c-1.935975,16.593993 -4.947493,33.978176 -6.66836,38.45592c-4.302168,10.799265 -17.20867,19.491357 -29.254739,19.491357c-8.819443,0 -10.325202,-1.053587 -25.813005,-20.281547zm34.41734,-4.214347c3.871951,-5.004538 6.453251,-19.491357 8.174118,-47.411408c1.505759,-21.861927 1.29065,-23.442307 -3.441734,-29.500432c-6.023035,-7.901901 -16.778453,-8.692091 -23.446813,-1.843777c-5.592818,5.267934 -8.174118,17.64758 -10.110094,48.464995c-1.505759,22.125324 -1.29065,22.915514 4.302168,29.763828c4.947493,6.058124 7.098576,6.848315 13.766936,5.794728c4.087059,-1.053587 9.034552,-3.424157 10.755419,-5.267934z"/>
   <path stroke="null" stroke-width="0" id="svg_11" fill="#000000" d="m121.976795,2026.057424c-2.151084,-10.535868 0.645325,-35.558556 5.807926,-52.679342c15.91802,-52.679342 57.649045,-90.871866 111.641247,-102.461321c8.819443,-2.107174 16.348237,-3.160761 16.778453,-2.897364c0.215108,0.526793 -7.95901,5.794728 -18.284212,11.852852c-42.591458,25.022688 -69.695114,59.527657 -101.531153,128.800992c-6.238143,13.169836 -11.615852,24.232497 -12.046069,24.232497c-0.645325,0 -1.720867,-3.160761 -2.366192,-6.848315z"/>
   <path stroke="null" stroke-width="0" id="svg_12" fill="#020202" d="m522.508591,1988.655091l-16.778453,-21.071737l3.441734,-30.554019c1.935975,-16.85739 4.947493,-34.241573 6.66836,-38.719317c4.947493,-11.326059 15.272695,-18.174373 27.964089,-18.174373c10.325202,0 10.970527,0.526793 26.888547,19.754753l16.348237,20.01815l-2.796409,28.183448c-4.732384,44.250648 -11.615852,56.366896 -34.202232,59.791054l-10.54031,1.58038l-16.993562,-20.80834zm29.900064,-2.107174c5.807926,-2.897364 9.24966,-14.750216 12.046069,-42.933664c2.366192,-23.178911 2.366192,-27.920051 -0.215108,-33.978176c-6.238143,-13.169836 -22.586379,-14.223422 -29.254739,-1.843777c-3.656842,6.848315 -9.464769,54.259723 -7.743902,63.215211c2.581301,13.433232 14.197153,20.544944 25.16768,15.540406z"/>
   <path stroke="null" stroke-width="0" id="svg_13" fill="#050404" d="m464.214221,1991.815851c-2.366192,-2.107174 -5.377709,-4.741141 -6.66836,-5.794728c-1.935975,-1.316984 -0.860434,-17.120786 3.656842,-58.47407c3.441734,-31.080812 6.238143,-58.210673 6.238143,-60.05445c0,-2.633967 1.29065,-2.37057 6.023035,0.526793c14.197153,9.218885 13.766936,4.741141 6.883468,67.429558c-3.441734,31.080812 -6.238143,57.420483 -6.453251,58.737467c0,3.160761 -5.162601,1.843777 -9.679877,-2.37057z"/>
   <path stroke="null" stroke-width="13" id="svg_14" fill="#ffffff" d="m477.863225,2285.520705c2.581301,-0.79019 13.982045,-3.687554 25.167681,-6.584918c54.422419,-14.486819 95.938335,-30.290622 104.972887,-40.299697c5.807927,-6.584918 6.023035,-12.379645 0.430217,-21.071737c-2.366192,-3.687555 -4.302168,-7.901901 -4.302168,-9.218885c0,-3.687554 28.179198,-16.857389 54.852636,-25.549481c11.830961,-3.950951 29.25474,-10.535869 38.719508,-14.486819c14.627369,-6.321521 21.725945,-7.638505 46.248301,-8.692092c30.115173,-1.580381 37.213749,-3.160761 35.923099,-8.165299c-1.075542,-4.214347 -15.702911,-13.960025 -28.394305,-18.964563c-11.830961,-4.74114 -24.737464,-15.277009 -24.737464,-20.281546c-0.215109,-11.062663 0.860433,-11.062663 -101.531153,-11.062663c-94.00236,0 -98.304528,-0.263396 -120.030473,-6.058124c-44.312325,-12.116249 -72.061306,-26.603068 -91.636169,-48.728392c-10.755419,-11.852851 -12.691394,-12.906438 -27.103655,-15.277009c-30.115173,-4.74114 -28.824523,-3.95095 -31.620931,-15.803802c-1.505759,-6.058125 -2.366192,-11.062662 -1.935975,-11.589456c0.430216,-0.526793 9.464768,0.526794 20.220186,2.370571l19.574863,3.16076l2.366192,-14.486819c4.517275,-27.920051 9.679877,-83.496757 8.174118,-90.608469c-5.377709,-27.129861 -37.643965,-31.080812 -47.323842,-5.794727c-1.935975,4.74114 -3.441734,11.852852 -3.441734,15.540406c0,8.428695 -1.29065,8.428695 -11.615852,0c-6.883469,-5.794727 -7.95901,-7.901901 -6.66836,-13.696628c4.517276,-22.915514 19.574863,-38.982714 38.934616,-41.61668l10.540311,-1.580381l20.865512,26.076275l20.650404,25.812878l-6.453251,60.317847l-6.668359,60.581243l7.313685,7.638505c9.24966,9.745678 31.405823,23.17891 49.259818,30.290622c40.225266,16.0672 84.107375,20.544944 158.104657,16.330596c64.532513,-3.950951 106.908863,-2.897364 116.158523,2.633967c4.087059,2.633968 7.313685,7.375108 8.819444,13.169836c2.151084,8.165299 4.087059,10.009075 17.638886,16.0672c32.696473,14.750215 45.172759,31.871002 35.062665,47.411408c-6.238143,9.745678 -18.929537,13.433232 -55.067744,15.803803c-30.545389,1.843776 -34.417341,2.897363 -75.287932,17.384183l-43.021675,15.540406l0.860433,11.062662c0.860433,15.540406 -3.87195,23.17891 -19.78997,32.134398c-15.057587,8.165299 -57.433937,20.544944 -99.38007,28.973639c-15.272695,2.897363 -30.54539,6.058124 -33.772016,6.848314l-2.710045,-0.329246z"/>
   <path stroke="null" stroke-width="0" id="svg_15" fill="#ffffff" d="m458.551456,1997.345652c-2.366191,-2.107174 -5.377709,-4.74114 -6.668359,-5.794727c-1.935976,-1.316983 -0.860434,-17.120787 3.656842,-58.47407c3.441734,-31.080813 6.238143,-58.210674 6.238143,-60.05445c0,-2.633968 1.29065,-2.37057 6.023035,0.526793c14.197152,9.218885 13.766936,4.741141 6.883468,67.429559c-3.441734,31.080812 -6.238143,57.420483 -6.453251,58.737466c0,3.160761 -5.162601,1.843777 -9.679877,-2.37057z"/>
   <path stroke="null" stroke-width="0" id="svg_16" fill="#ffffff" d="m514.958237,1994.589512l-16.778453,-21.071737l3.441734,-30.554019c1.935975,-16.857389 4.947492,-34.241572 6.66836,-38.719316c4.947492,-11.326058 15.272694,-18.174374 27.964088,-18.174374c10.325202,0 10.970528,0.526794 26.888547,19.754753l16.348236,20.018151l-2.796409,28.183447c-4.732385,44.250648 -11.615852,56.366897 -34.202232,59.791054l-10.54031,1.58038l-16.993562,-20.80834zm29.900064,-2.107174c5.807927,-2.897363 9.24966,-14.750215 12.046069,-42.933664c2.366191,-23.17891 2.366191,-27.920051 -0.215109,-33.978176c-6.238143,-13.169836 -22.58638,-14.223422 -29.25474,-1.843776c-3.656842,6.848314 -9.464768,54.259722 -7.743901,63.21521c2.5813,13.433233 14.197152,20.544944 25.16768,15.540406z"/>
   <path stroke="null" stroke-width="0" id="svg_17" fill="#fcfcfc" d="m630.901651,2067.615427c-29.25474,-5.004538 -35.492883,-8.165299 -35.492883,-16.593993c0,-5.531331 5.377709,-57.68388 7.528793,-73.487683c0.645326,-5.267933 -0.215109,-7.375107 -3.226626,-8.692092c-2.151084,-0.790189 -4.947492,-5.004537 -6.238143,-9.218884c-2.151084,-7.638505 -1.935975,-7.901901 4.947492,-7.901901l7.313685,0l2.581301,-26.866465c1.505759,-15.013612 3.441734,-28.183447 4.517276,-29.500432c0.860433,-1.316983 5.162601,0.526794 9.464768,3.687555c8.819443,6.584918 8.604335,4.477744 4.087059,45.040838l-1.29065,11.852852l17.423779,2.897363c9.679877,1.580381 18.069104,3.160761 18.49932,3.687555c0.430217,0.526793 1.29065,4.214348 2.151084,8.428694c1.505759,6.584918 1.075542,7.111712 -4.517276,7.111712c-3.441733,0 -12.476286,-1.316983 -20.220186,-2.633968c-7.528793,-1.316983 -14.197153,-2.107173 -14.412262,-1.58038c-0.430216,0.263396 -2.151084,13.696629 -3.87195,29.500432c-1.720868,15.803802 -3.656843,32.397796 -4.302168,36.87554l-1.075542,8.165298l20.865512,3.160761c11.615852,1.843777 21.725946,4.74114 22.58638,6.584918c2.151084,3.950951 2.151084,14.750216 0.215109,14.486819c-1.075542,-0.263396 -13.33672,-2.37057 -27.533872,-5.004537z"/>
   <path stroke="null" stroke-width="0" id="svg_18" fill="#ffffff" d="m706.834908,2022.882434l-16.563345,-20.544944l3.226626,-28.973638c5.162601,-44.250648 9.464768,-52.415946 30.760497,-57.157086l13.33672,-3.160761l17.20867,21.071737l17.208669,21.071737l-3.441733,30.027226c-1.935976,16.593993 -4.947493,33.978176 -6.66836,38.45592c-4.302168,10.799265 -17.20867,19.491357 -29.254739,19.491357c-8.819444,0 -10.325203,-1.053587 -25.813005,-20.281547zm34.41734,-4.214348c3.871951,-5.004537 6.453251,-19.491357 8.174119,-47.411408c1.505758,-21.861927 1.290649,-23.442307 -3.441734,-29.500432c-6.023034,-7.901901 -16.778453,-8.692092 -23.446813,-1.843777c-5.592818,5.267934 -8.174118,17.64758 -10.110093,48.464996c-1.505759,22.125324 -1.29065,22.915514 4.302168,29.763828c4.947492,6.058124 7.098576,6.848314 13.766936,5.794727c4.087059,-1.053587 9.034551,-3.424157 10.755418,-5.267934z"/>
   <path stroke="null" stroke-width="0" id="svg_19" fill="#ffffff" d="m833.055138,2041.505875c-4.517275,-12.379645 -9.034551,-22.38872 -9.894985,-22.38872c-0.860433,0 -7.098577,8.955488 -13.982045,19.754753l-12.261177,19.754753l-8.389227,-6.058125c-4.517276,-3.160761 -8.389228,-6.584918 -8.389228,-7.375108c0,-1.053587 7.528793,-13.433232 16.778454,-27.920051l16.993562,-26.076275l-10.540311,-27.129862c-5.592817,-15.013612 -10.325202,-28.710241 -10.325202,-30.554019c0,-5.267933 9.24966,-7.111711 12.261178,-2.37057c1.290649,2.107174 5.592817,12.906439 9.679876,23.705704c3.871951,10.799265 7.743902,19.491357 8.389228,19.491357c0.860433,0 7.098576,-8.955489 13.766936,-19.754753c6.883468,-10.799265 12.906502,-19.754753 13.551827,-19.754753c1.935975,0 15.487803,11.062662 15.487803,12.643042c0,0.79019 -7.313685,13.169836 -16.348236,27.393258c-18.284212,29.237035 -18.069104,24.759291 -4.08706,60.844641c9.679877,24.75929 9.679877,28.183448 0,28.183448c-3.226626,0 -6.238143,-5.267934 -12.691394,-22.388721z"/>
   <path stroke="null" stroke-width="0" id="svg_21" fill="#ffffff" d="m427.005539,2414.143904c-28.179197,-15.013612 -39.795049,-22.652117 -58.079261,-37.665729c-31.405823,-25.812878 -49.690035,-54.786516 -52.91666,-84.286948l-1.29065,-12.379645l-11.185635,-1.580381c-42.161242,-6.848314 -94.647686,-29.237035 -117.234065,-50.045375c-10.110094,-9.218884 -6.883469,-8.692092 14.197152,2.633968c23.446813,12.116249 52.056227,21.071737 95.077902,28.973638c19.359754,3.424157 36.783533,7.638505 38.934617,8.955488c2.366191,1.580381 4.302167,6.848315 4.947492,14.48682c3.87195,34.504969 29.684956,66.902765 79.374991,99.827354l18.49932,12.379645l-1.075542,-20.80834c-1.505758,-26.076275 3.871951,-50.045374 16.348237,-72.960888c16.993562,-31.607606 33.341798,-48.991789 20.650404,-22.125325c-9.464768,20.281547 -16.133127,50.308772 -16.133127,72.960889c0.215108,18.964563 1.290649,24.232497 8.819443,47.411408c2.581301,7.638505 2.366192,8.955489 -1.720867,13.960026c-7.313685,8.955488 -20.650405,9.218885 -37.213749,0.263396z"/>
   <path stroke="null" stroke-width="0" id="svg_22" fill="#ffffff" d="m546.911518,2390.749336c-33.772015,-9.218885 -67.54403,-31.871002 -80.665641,-53.996326c-9.464768,-15.803803 -8.389227,-19.754754 2.79641,-10.535869c20.435295,16.857389 48.829601,33.187985 66.898705,38.45592l6.238143,1.843777l-7.098577,-9.745678c-13.12161,-18.43777 -18.714428,-43.197061 -12.691394,-56.89369c2.151084,-4.74114 2.79641,-4.214348 7.098577,7.375108c4.517275,11.852851 20.435295,32.661191 45.172759,59.527656c6.66836,7.375108 7.959009,10.272471 6.66836,15.013613c-0.860434,3.160761 -3.871951,6.848314 -6.883469,8.428694c-5.377709,2.370571 -19.574862,2.633968 -27.533872,0.526794z"/>
   <path stroke="null" stroke-width="0" id="svg_23" fill="#fcfcfc" d="m200.596274,2220.855166c-45.387868,-20.80834 -86.903784,-54.259723 -111.21103,-89.818279c-37.859075,-55.576706 -44.527434,-128.274198 -17.638887,-195.440361c5.377709,-13.960025 9.464768,-16.857389 6.883469,-5.267934c-0.860433,3.950951 -1.505759,23.705704 -1.505759,43.987252c0,67.692955 10.755419,107.729255 42.161242,155.667456c19.574863,29.763828 40.440375,50.045375 97.659203,95.086213c6.66836,5.004537 0.860433,3.687554 -16.348236,-4.214348z"/>
   <path stroke="null" stroke-width="0" id="svg_24" fill="#ffffff" d="m106.537314,2077.800051c-10.755418,-24.759291 -16.563344,-86.657519 -11.400743,-119.582108c15.272694,-95.086213 102.821803,-147.765555 266.304169,-160.408597c25.16768,-2.107174 46.678517,-2.107174 72.921739,0c61.305887,4.477744 91.205952,12.116249 196.609056,48.728392c75.718148,26.339671 116.588739,37.402333 165.633449,44.777441c59.369912,9.218885 197.039272,7.901901 289.105657,-2.897364c31.83604,-3.687554 44.312326,-3.687554 29.900065,0c-10.540311,2.633967 -71.200873,11.589455 -110.350597,16.330596c-47.969168,6.058124 -194.67308,6.848314 -224.788253,1.58038c-55.713069,-9.745678 -96.798769,-20.80834 -178.75506,-47.938201c-106.478646,-35.29516 -132.936977,-40.563094 -209.515558,-40.563094c-59.154804,-0.263397 -75.718149,1.58038 -129.065026,14.486819c-61.305887,14.750216 -93.141927,32.134399 -121.751341,66.902765c-26.888547,32.397796 -34.847557,57.157086 -36.783532,113.260586c-0.860433,25.812878 -0.215108,38.45592 2.151084,51.362359c3.441734,17.647579 3.441734,22.38872 -0.215109,13.960026z"/>
   <path stroke="null" stroke-width="0" id="svg_25" fill="#ffffff" d="m130.220039,2022.679046c-2.151083,-10.535869 0.645325,-35.558556 5.807926,-52.679343c15.91802,-52.679342 57.649045,-90.871865 111.641247,-102.46132c8.819444,-2.107174 16.348237,-3.160761 16.778454,-2.897364c0.215108,0.526793 -7.95901,5.794727 -18.284212,11.852852c-42.591459,25.022687 -69.695114,59.527657 -101.531154,128.800992c-6.238142,13.169835 -11.615852,24.232497 -12.046069,24.232497c-0.645325,0 -1.720867,-3.16076 -2.366192,-6.848314z"/>
   <path stroke="null" stroke-width="0" id="svg_26" fill="#ffffff" d="m514.85551,2252.177863c-3.011517,-0.790191 -8.819443,-2.633968 -12.906502,-4.477745c-7.528793,-2.897363 -7.528793,-2.897363 8.604335,-5.531331c15.91802,-2.897363 16.133128,-2.897363 16.778453,-11.062661c0.430217,-4.741141 3.011517,-11.062662 6.023035,-14.48682c4.947492,-5.531331 7.528793,-6.321521 24.092138,-6.321521c40.440374,0 50.33536,22.652118 15.702911,35.821953c-13.766936,5.004538 -47.323842,8.692092 -58.29437,6.058125z"/>
  </g>
 </g>
</svg>