<svg xmlns="http://www.w3.org/2000/svg" version="1.0" width="506pt" height="243pt" viewBox="0 0 506 243" preserveAspectRatio="xMidYMid meet"  xmlns:xlink="http://www.w3.org/1999/xlink"><rect id="svgEditorBackground" x="0" y="0" width="506" height="243" style="fill:none;stroke:none;"/>
<metadata>
Created by potrace 1.15, written by Peter Selinger 2001-2017
</metadata>
<g transform="translate(0.000000,243.000000) scale(0.100000,-0.100000)" fill="#000000" stroke="none">
<path d="M1740,2382c-131,-57,-185,-86,-270,-143c-146,-98,-231,-208,-246,-320l-6,-47l-52,-6c-196,-26,-440,-111,-545,-190c-47,-35,-32,-33,66,10c109,46,242,80,442,110c90,13,171,29,181,34c11,6,20,26,23,55c18,131,138,254,369,379l86,47l-5,-79c-7,-99,18,-190,76,-277c79,-120,155,-186,96,-84c-44,77,-75,191,-75,277c1,72,6,92,41,180c12,29,11,34,-8,53c-34,34,-96,35,-173,1Z" style="fill:white;"/>
<path d="M2325,2243c-157,-35,-314,-121,-375,-205c-44,-60,-39,-75,13,-40c95,64,227,126,311,146l29,7l-33,-37c-61,-70,-87,-164,-59,-216c10,-18,13,-16,33,28c21,45,95,124,210,226c31,28,37,39,31,57c-4,12,-18,26,-32,32c-25,9,-91,10,-128,2Z" style="fill:white;"/>
<path d="M2030,1881c0,-6,10,-13,23,-16c12,-3,65,-14,117,-25c253,-55,446,-115,488,-153c27,-25,28,-47,2,-80c-11,-14,-20,-30,-20,-35c0,-14,131,-64,255,-97c55,-15,136,-40,180,-55c68,-24,101,-29,215,-33c140,-6,173,-12,167,-31c-5,-16,-73,-53,-132,-72c-55,-18,-115,-58,-115,-77c-1,-42,4,-42,-472,-42c-437,0,-457,-1,-558,-23c-206,-46,-335,-101,-426,-185c-50,-45,-59,-49,-126,-58c-140,-18,-134,-15,-147,-60c-7,-23,-11,-42,-9,-44c2,-2,44,2,94,9l91,12l11,-55c21,-106,45,-317,38,-344c-25,-103,-175,-118,-220,-22c-9,18,-16,45,-16,59c0,32,-6,32,-54,0c-32,-22,-37,-30,-31,-52c21,-87,91,-148,181,-158l49,-6l97,99l96,98l-30,229l-31,230l34,29c43,37,146,88,229,115c187,61,391,78,735,62c300,-15,497,-11,540,10c19,10,34,28,41,50c10,31,19,38,82,61c152,56,210,121,163,180c-29,37,-88,51,-256,60c-142,7,-160,11,-350,66l-200,59l4,42c4,59,-18,88,-92,122c-70,31,-267,78,-462,110c-71,11,-142,23,-157,26c-17,3,-28,1,-28,-5Z" style="fill:white;"/>
<path d="M2240,1724c-14,-3,-41,-10,-60,-17c-35,-11,-35,-11,40,-21c74,-11,75,-11,78,-42c2,-18,14,-42,28,-55c23,-21,35,-24,112,-24c188,0,234,86,73,136c-64,19,-220,33,-271,23Z" style="fill:white;"/>
<path d="M700,1641c-211,-79,-404,-206,-517,-341c-176,-211,-207,-487,-82,-742c25,-53,44,-64,32,-20c-4,15,-7,90,-7,167c0,257,50,409,196,591c91,113,188,190,454,361c31,19,4,14,-76,-16Z" style="fill:white;"/>
<path d="M252,1103c-50,-94,-77,-329,-53,-454c71,-361,478,-561,1238,-609c117,-8,217,-8,339,0c285,17,424,46,914,185c352,100,542,142,770,170c276,35,916,30,1344,-11c148,-14,206,-14,139,0c-49,10,-331,44,-513,62c-223,23,-905,26,-1045,6c-259,-37,-450,-79,-831,-182c-495,-134,-618,-154,-974,-154c-275,-1,-352,6,-600,55c-285,56,-433,122,-566,254c-125,123,-162,217,-171,430c-4,98,-1,146,10,195c16,67,16,85,-1,53Z" style="fill:white;"/>
<path d="M2775,1050c-136,-19,-165,-31,-165,-63c0,-21,25,-219,35,-279c3,-20,-1,-28,-15,-33c-10,-3,-23,-19,-29,-35c-10,-29,-9,-30,23,-30l34,0l12,-102c7,-57,16,-107,21,-112c4,-5,24,2,44,14c41,25,40,17,19,171l-6,45l81,11c45,6,84,12,86,14c2,2,6,16,10,32c7,25,5,27,-21,27c-16,0,-58,-5,-94,-10c-35,-5,-66,-8,-67,-6c-2,1,-10,52,-18,112c-8,60,-17,123,-20,140l-5,31l97,12c54,7,101,18,105,25c10,15,10,56,1,55c-5,-1,-62,-9,-128,-19Z" style="fill:white;"/>
<path d="M3706,935c-21,-47,-42,-85,-46,-85c-4,0,-33,34,-65,75l-57,75l-39,-23c-21,-12,-39,-25,-39,-28c0,-4,35,-51,78,-106l79,-99l-49,-103c-26,-57,-48,-109,-48,-116c0,-20,43,-27,57,-9c6,8,26,49,45,90c18,41,36,74,39,74c4,0,33,-34,64,-75c32,-41,60,-75,63,-75c9,0,72,42,72,48c0,3,-34,50,-76,104c-85,111,-84,94,-19,231c45,94,45,107,0,107c-15,0,-29,-20,-59,-85Z" style="fill:white;"/>
<path d="M3128,873l-77,-78l15,-110c24,-168,44,-199,143,-217l62,-12l80,80l80,80l-16,114c-9,63,-23,129,-31,146c-20,41,-80,74,-136,74c-41,0,-48,-4,-120,-77ZM3288,857c18,-19,30,-74,38,-180c7,-83,6,-89,-16,-112c-28,-30,-78,-33,-109,-7c-26,20,-38,67,-47,184c-7,84,-6,87,20,113c23,23,33,26,64,22c19,-4,42,-13,50,-20Z" style="fill:white;"/>
<path d="M374,904c-10,-40,3,-135,27,-200c74,-200,268,-345,519,-389c41,-8,76,-12,78,-11c1,2,-37,22,-85,45c-198,95,-324,226,-472,489c-29,50,-54,92,-56,92c-3,0,-8,-12,-11,-26Z" style="fill:white;"/>
<path d="M2236,762l-78,-80l16,-116c9,-64,23,-130,31,-147c23,-43,71,-69,130,-69c48,0,51,2,125,75l76,76l-13,107c-22,168,-54,214,-159,227l-49,6l-79,-79ZM2375,754c27,-11,43,-56,56,-163c11,-88,11,-106,-1,-129c-29,-50,-105,-54,-136,-7c-17,26,-44,206,-36,240c12,51,66,78,117,59Z" style="fill:white;"/>
<path d="M1965,774c-11,-8,-25,-18,-31,-22c-9,-5,-4,-65,17,-222c16,-118,29,-221,29,-228c0,-10,6,-9,28,2c66,35,64,18,32,256c-16,118,-29,218,-30,223c0,12,-24,7,-45,-9Z" style="fill:white;"/>
</g>
</svg>